<svg viewBox="0 0 330 200" xmlns="http://www.w3.org/2000/svg"><g><g><g><g><g><line x1="70" y1="178" x2="65" y2="178" style="visibility: inherit;" fill="rgb(0, 0, 0)" stroke="rgb(204, 204, 204)" stroke-width="1px"></line><line x1="70" y1="160.2" x2="65" y2="160.2" style="visibility: inherit;" fill="rgb(0, 0, 0)" stroke="rgb(204, 204, 204)" stroke-width="1px"></line><line x1="70" y1="142.4" x2="65" y2="142.4" style="visibility: inherit;" fill="rgb(0, 0, 0)" stroke="rgb(204, 204, 204)" stroke-width="1px"></line><line x1="70" y1="124.6" x2="65" y2="124.6" style="visibility: inherit;" fill="rgb(0, 0, 0)" stroke="rgb(204, 204, 204)" stroke-width="1px"></line><line x1="70" y1="106.8" x2="65" y2="106.8" style="visibility: inherit;" fill="rgb(0, 0, 0)" stroke="rgb(204, 204, 204)" stroke-width="1px"></line><line x1="70" y1="89" x2="65" y2="89" style="visibility: inherit;" fill="rgb(0, 0, 0)" stroke="rgb(204, 204, 204)" stroke-width="1px"></line><line x1="70" y1="71.2" x2="65" y2="71.2" style="visibility: inherit;" fill="rgb(0, 0, 0)" stroke="rgb(204, 204, 204)" stroke-width="1px"></line><line x1="70" y1="53.400000000000006" x2="65" y2="53.400000000000006" style="visibility: inherit;" fill="rgb(0, 0, 0)" stroke="rgb(204, 204, 204)" stroke-width="1px"></line><line x1="70" y1="35.599999999999994" x2="65" y2="35.599999999999994" style="visibility: inherit;" fill="rgb(0, 0, 0)" stroke="rgb(204, 204, 204)" stroke-width="1px"></line><line x1="70" y1="17.799999999999983" x2="65" y2="17.799999999999983" style="visibility: inherit;" fill="rgb(0, 0, 0)" stroke="rgb(204, 204, 204)" stroke-width="1px"></line><line x1="70" y1="0" x2="65" y2="0" style="visibility: inherit;" fill="rgb(0, 0, 0)" stroke="rgb(204, 204, 204)" stroke-width="1px"></line></g><g transform="translate(60, 0)"><text x="0" y="178" dx="0em" dy="0.3em" style="text-anchor: end; visibility: hidden; font-family: &quot;Helvetica Neue&quot;, sans-serif; font-size: 12px; font-weight: 200;" fill="rgb(50, 49, 63)" stroke="none" stroke-width="1px">-600</text><text x="0" y="160.2" dx="0em" dy="0.3em" style="text-anchor: end; visibility: inherit; font-family: &quot;Helvetica Neue&quot;, sans-serif; font-size: 12px; font-weight: 200;" fill="rgb(50, 49, 63)" stroke="none" stroke-width="1px">-400</text><text x="0" y="142.4" dx="0em" dy="0.3em" style="text-anchor: end; visibility: hidden; font-family: &quot;Helvetica Neue&quot;, sans-serif; font-size: 12px; font-weight: 200;" fill="rgb(50, 49, 63)" stroke="none" stroke-width="1px">-200</text><text x="0" y="124.6" dx="0em" dy="0.3em" style="text-anchor: end; visibility: inherit; font-family: &quot;Helvetica Neue&quot;, sans-serif; font-size: 12px; font-weight: 200;" fill="rgb(50, 49, 63)" stroke="none" stroke-width="1px">0</text><text x="0" y="106.8" dx="0em" dy="0.3em" style="text-anchor: end; visibility: hidden; font-family: &quot;Helvetica Neue&quot;, sans-serif; font-size: 12px; font-weight: 200;" fill="rgb(50, 49, 63)" stroke="none" stroke-width="1px">200</text><text x="0" y="89" dx="0em" dy="0.3em" style="text-anchor: end; visibility: inherit; font-family: &quot;Helvetica Neue&quot;, sans-serif; font-size: 12px; font-weight: 200;" fill="rgb(50, 49, 63)" stroke="none" stroke-width="1px">400</text><text x="0" y="71.2" dx="0em" dy="0.3em" style="text-anchor: end; visibility: hidden; font-family: &quot;Helvetica Neue&quot;, sans-serif; font-size: 12px; font-weight: 200;" fill="rgb(50, 49, 63)" stroke="none" stroke-width="1px">600</text><text x="0" y="53.400000000000006" dx="0em" dy="0.3em" style="text-anchor: end; visibility: inherit; font-family: &quot;Helvetica Neue&quot;, sans-serif; font-size: 12px; font-weight: 200;" fill="rgb(50, 49, 63)" stroke="none" stroke-width="1px">800</text><text x="0" y="35.599999999999994" dx="0em" dy="0.3em" style="text-anchor: end; visibility: hidden; font-family: &quot;Helvetica Neue&quot;, sans-serif; font-size: 12px; font-weight: 200;" fill="rgb(50, 49, 63)" stroke="none" stroke-width="1px">1e+3</text><text x="0" y="17.799999999999983" dx="0em" dy="0.3em" style="text-anchor: end; visibility: inherit; font-family: &quot;Helvetica Neue&quot;, sans-serif; font-size: 12px; font-weight: 200;" fill="rgb(50, 49, 63)" stroke="none" stroke-width="1px">1.2e+3</text><text x="0" y="0" dx="0em" dy="0.3em" style="text-anchor: end; visibility: hidden; font-family: &quot;Helvetica Neue&quot;, sans-serif; font-size: 12px; font-weight: 200;" fill="rgb(50, 49, 63)" stroke="none" stroke-width="1px">1.4e+3</text></g><line x1="70" y1="0" x2="70" y2="178" fill="rgb(0, 0, 0)" stroke="rgb(204, 204, 204)" stroke-width="1px"></line></g></g><g transform="translate(70, 0)" clip-path="url(#clip_0)"><clipPath id="clip_0"><rect width="260" height="178"></rect></clipPath><g><g><g><line x1="0" y1="0" x2="0" y2="178" fill="rgb(0, 0, 0)" stroke="rgb(60, 60, 60)" stroke-width="1px" opacity="0.25"></line><line x1="26" y1="0" x2="26" y2="178" fill="rgb(0, 0, 0)" stroke="rgb(60, 60, 60)" stroke-width="1px" opacity="0.25"></line><line x1="52" y1="0" x2="52" y2="178" fill="rgb(0, 0, 0)" stroke="rgb(60, 60, 60)" stroke-width="1px" opacity="0.25"></line><line x1="78" y1="0" x2="78" y2="178" fill="rgb(0, 0, 0)" stroke="rgb(60, 60, 60)" stroke-width="1px" opacity="0.25"></line><line x1="104" y1="0" x2="104" y2="178" fill="rgb(0, 0, 0)" stroke="rgb(60, 60, 60)" stroke-width="1px" opacity="0.25"></line><line x1="130" y1="0" x2="130" y2="178" fill="rgb(0, 0, 0)" stroke="rgb(60, 60, 60)" stroke-width="1px" opacity="0.25"></line><line x1="156" y1="0" x2="156" y2="178" fill="rgb(0, 0, 0)" stroke="rgb(60, 60, 60)" stroke-width="1px" opacity="0.25"></line><line x1="182" y1="0" x2="182" y2="178" fill="rgb(0, 0, 0)" stroke="rgb(60, 60, 60)" stroke-width="1px" opacity="0.25"></line><line x1="208" y1="0" x2="208" y2="178" fill="rgb(0, 0, 0)" stroke="rgb(60, 60, 60)" stroke-width="1px" opacity="0.25"></line><line x1="234" y1="0" x2="234" y2="178" fill="rgb(0, 0, 0)" stroke="rgb(60, 60, 60)" stroke-width="1px" opacity="0.25"></line><line x1="260" y1="0" x2="260" y2="178" fill="rgb(0, 0, 0)" stroke="rgb(60, 60, 60)" stroke-width="1px" opacity="0.25"></line></g><g><line x1="0" y1="178" x2="260" y2="178" fill="rgb(0, 0, 0)" stroke="rgb(60, 60, 60)" stroke-width="1px" opacity="0.25"></line><line x1="0" y1="160.2" x2="260" y2="160.2" fill="rgb(0, 0, 0)" stroke="rgb(60, 60, 60)" stroke-width="1px" opacity="0.25"></line><line x1="0" y1="142.4" x2="260" y2="142.4" fill="rgb(0, 0, 0)" stroke="rgb(60, 60, 60)" stroke-width="1px" opacity="0.25"></line><line x1="0" y1="124.6" x2="260" y2="124.6" fill="rgb(0, 0, 0)" stroke="rgb(60, 60, 60)" stroke-width="1px" opacity="0.25"></line><line x1="0" y1="106.8" x2="260" y2="106.8" fill="rgb(0, 0, 0)" stroke="rgb(60, 60, 60)" stroke-width="1px" opacity="0.25"></line><line x1="0" y1="89" x2="260" y2="89" fill="rgb(0, 0, 0)" stroke="rgb(60, 60, 60)" stroke-width="1px" opacity="0.25"></line><line x1="0" y1="71.2" x2="260" y2="71.2" fill="rgb(0, 0, 0)" stroke="rgb(60, 60, 60)" stroke-width="1px" opacity="0.25"></line><line x1="0" y1="53.400000000000006" x2="260" y2="53.400000000000006" fill="rgb(0, 0, 0)" stroke="rgb(60, 60, 60)" stroke-width="1px" opacity="0.25"></line><line x1="0" y1="35.599999999999994" x2="260" y2="35.599999999999994" fill="rgb(0, 0, 0)" stroke="rgb(60, 60, 60)" stroke-width="1px" opacity="0.25"></line><line x1="0" y1="17.799999999999983" x2="260" y2="17.799999999999983" fill="rgb(0, 0, 0)" stroke="rgb(60, 60, 60)" stroke-width="1px" opacity="0.25"></line><line x1="0" y1="0" x2="260" y2="0" fill="rgb(0, 0, 0)" stroke="rgb(60, 60, 60)" stroke-width="1px" opacity="0.25"></line></g></g></g><g><g><line x1="0" y1="124.6" x2="260" y2="124.6" fill="rgb(0, 0, 0)" stroke="rgb(153, 153, 153)" stroke-width="1.5px"></line></g></g><g><g><line x1="26" y1="0" x2="26" y2="178" fill="rgb(0, 0, 0)" stroke="rgb(153, 153, 153)" stroke-width="1.5px"></line></g></g><g><g><g><g><g><path stroke="rgb(238, 51, 119)" stroke-width="2px" d="M26,75.0482885131836L31.2,36.336254455566404L36.400000000000006,41.70703833007812L41.6,55.019089477539055L46.8,48.025223510742194L52,72.24215936279296L57.2,53.94385931396485L62.4,113.2973374710083L67.60000000000001,115.57511603546143L72.80000000000001,63.45309973144532L78,70.03521575927735L83.2,72.56726141357423L88.4,74.25552362060546L93.6,122.4237102394104L98.8,86.87467684936524L104,92.34762548828125L109.2,102.4944362335205L114.4,98.24036361694337L119.60000000000001,103.18911317443848L124.8,103.92817739868164L130,122.43286150932312L135.20000000000002,104.65645613098145L140.4,123.50334390735625L145.60000000000002,114.07956267547607L150.79999999999998,122.79044887924195L156,116.2787193222046L161.2,120.69014441680909L166.4,124.34394223856926L171.6,122.44610198402404L176.8,124.5893932749629L182,124.64850294852258L187.2,126.65753714179993L192.4,124.79503746914864L197.6,134.09149297332763L202.8,126.02108073997496L208,127.67312405776977L213.2,139.34217179870606L218.4,125.53611003208161L223.6,145.4200789794922L228.8,125.795056306839L234,125.11833187294008L239.20000000000002,126.82565066719056L243.36,143.74723994445802" style="fill: none;" fill="none"></path></g><g><path stroke="rgb(51, 187, 238)" stroke-width="2px" d="M26,102.57316815185547L31.2,63.22194635009765L36.400000000000006,38.39374389648438L41.6,40.98208270263672L46.8,83.44512399291992L52,58.42218243408203L57.2,119.66666886138916L62.4,59.15238006591797L67.60000000000001,70.20887005615234L72.80000000000001,77.41827746582031L78,83.76368576049805L83.2,122.0761600856781L88.4,91.93753506469727L93.6,97.0117790222168L98.8,123.74999685001373L104,122.8647924861908L109.2,114.6632741241455L114.4,122.53464721298218L119.60000000000001,118.94770147705077L124.8,122.26058510589598L130,121.13044019317627L135.20000000000002,118.95219418716431L140.4,124.53711118799448L145.60000000000002,124.70963972389697L150.79999999999998,125.29186089134217L156,128.8044850883484L161.2,129.40230784988404L166.4,132.30807209014893L171.6,130.13920193862916L176.8,131.21834289550782L182,130.90990118408203L187.2,126.96319488716125L192.4,125.32052343463897L197.6,125.96483104515076L202.8,126.63323787117005L208,125.48169537830353L213.2,125.79564891815185L218.4,125.11786644983292L223.6,126.41614300918579L228.8,142.48619158935549L234,125.3501114768982L239.20000000000002,125.60406418228149L242.32000000000002,125.4498661584854" style="fill: none;" fill="none"></path></g><g><path stroke="rgb(204, 51, 17)" stroke-width="2px" d="M26,101.66077148437499L31.2,53.643359375L36.400000000000006,40.05620892333985L41.6,44.212825073242186L46.8,47.709350646972666L52,97.24882354736327L57.2,58.600329101562494L62.4,64.11951330566407L67.60000000000001,64.71841638183595L72.80000000000001,66.27840429687501L78,71.83290277099609L83.2,73.06946716308593L88.4,89.30026092529296L93.6,121.11963195419312L98.8,94.33457873535156L104,88.03205709838868L109.2,105.52451304626464L114.4,107.55219367980956L119.60000000000001,95.4715287475586L124.8,96.386826171875L130,119.17857680130004L135.20000000000002,107.79685948181152L140.4,112.50785833740234L145.60000000000002,110.20416036987305L150.79999999999998,124.34553073310852L156,124.09109690237045L161.2,124.57997580288351L166.4,124.6209467691481L171.6,124.62402468287945L176.8,125.04872529459L182,128.31025336456298L187.2,124.86059747219085L192.4,124.80999352049828L197.6,128.19257410049437L202.8,124.83663851594926L208,127.36420448875427L213.2,124.83791733670236L218.4,125.35244101142884L223.6,125.41641400527953L228.8,136.13036718749998L234,125.24782873344421L237.9,125.02371110486985" style="fill: none;" fill="none"></path></g><g><path stroke="rgb(0, 119, 187)" stroke-width="2px" d="M26,112.67066874694824L31.2,105.04139715576171L36.400000000000006,107.5215347442627L41.6,87.03911010742188L46.8,51.35311950683594L52,54.920637573242175L57.2,91.31501037597657L62.4,62.75232250976562L67.60000000000001,71.15930792236327L72.80000000000001,69.1821162109375L78,98.40610601806641L83.2,76.8799317626953L88.4,122.06875218963623L93.6,120.04036741638183L98.8,103.74511058044433L104,83.8824185180664L109.2,119.52128200531006L114.4,92.79853021240234L119.60000000000001,94.83549163818358L124.8,123.61223279857634L130,101.2145601196289L135.20000000000002,108.34991403198242L140.4,123.87726950836182L145.60000000000002,124.09093898868561L150.79999999999998,115.21270069122315L156,114.86446184539795L161.2,114.91594145202637L166.4,115.79154019927978L171.6,123.98766594266891L176.8,113.82099062347412L182,120.9358385887146L187.2,123.4810114068985L192.4,109.23183374023438L197.6,113.509561920166L202.8,122.98533940505982L208,123.16186424255372L213.2,122.82393557739258L218.4,124.48964214229584L223.6,123.51254304790497L228.8,124.61365251547099L234,124.637393414706L236.86,124.77121518611908" style="fill: none;" fill="none"></path></g><g><path stroke="rgb(255, 112, 67)" stroke-width="2px" d="M26,109.00218641662597L31.2,36.98650201416015L36.400000000000006,38.21360906982423L41.6,77.7094341430664L46.8,43.655179016113266L52,50.46019158935546L57.2,52.96618475341798L62.4,59.570686584472654L67.60000000000001,62.39578472900391L72.80000000000001,65.87544897460938L78,72.52680291748047L83.2,74.64540380859376L88.4,80.70862658691406L93.6,93.9511003112793L98.8,91.49793731689452L104,121.53149766540528L109.2,107.62696829223633L114.4,108.77088636779786L119.60000000000001,109.54663375854491L124.8,122.54848216629028L130,123.60464021015167L135.20000000000002,121.09467064285278L140.4,124.91098863720893L145.60000000000002,125.95839914989472L150.79999999999998,125.23792910289765L156,127.45831798934935L161.2,130.8503793106079L166.4,132.22993431091308L171.6,132.71925301361085L176.8,136.12476258850097L182,140.2012073059082L187.2,125.27746833848953L192.4,124.97717010974884L197.6,125.79441540050507L202.8,125.5580375843048L208,125.61497902679443L213.2,126.16666603851317L218.4,125.16630962371826L223.6,126.59390280723571L228.8,126.03316875457764L234,126.88335294723511L239.20000000000002,127.70629671096802L244.39999999999998,140.11055729675292L246.48,128.10243674850463" style="fill: none;" fill="none"></path></g></g></g></g></g></g><g transform="translate(70, 178)" clip-path="url(#clip_1)"><clipPath id="clip_1"><rect width="260" height="22"></rect></clipPath><g><g><line x1="0" y1="0" x2="0" y2="5" style="visibility: inherit;" fill="rgb(0, 0, 0)" stroke="rgb(204, 204, 204)" stroke-width="1px"></line><line x1="26" y1="0" x2="26" y2="5" style="visibility: inherit;" fill="rgb(0, 0, 0)" stroke="rgb(204, 204, 204)" stroke-width="1px"></line><line x1="52" y1="0" x2="52" y2="5" style="visibility: inherit;" fill="rgb(0, 0, 0)" stroke="rgb(204, 204, 204)" stroke-width="1px"></line><line x1="78" y1="0" x2="78" y2="5" style="visibility: inherit;" fill="rgb(0, 0, 0)" stroke="rgb(204, 204, 204)" stroke-width="1px"></line><line x1="104" y1="0" x2="104" y2="5" style="visibility: inherit;" fill="rgb(0, 0, 0)" stroke="rgb(204, 204, 204)" stroke-width="1px"></line><line x1="130" y1="0" x2="130" y2="5" style="visibility: inherit;" fill="rgb(0, 0, 0)" stroke="rgb(204, 204, 204)" stroke-width="1px"></line><line x1="156" y1="0" x2="156" y2="5" style="visibility: inherit;" fill="rgb(0, 0, 0)" stroke="rgb(204, 204, 204)" stroke-width="1px"></line><line x1="182" y1="0" x2="182" y2="5" style="visibility: inherit;" fill="rgb(0, 0, 0)" stroke="rgb(204, 204, 204)" stroke-width="1px"></line><line x1="208" y1="0" x2="208" y2="5" style="visibility: inherit;" fill="rgb(0, 0, 0)" stroke="rgb(204, 204, 204)" stroke-width="1px"></line><line x1="234" y1="0" x2="234" y2="5" style="visibility: inherit;" fill="rgb(0, 0, 0)" stroke="rgb(204, 204, 204)" stroke-width="1px"></line><line x1="260" y1="0" x2="260" y2="5" style="visibility: inherit;" fill="rgb(0, 0, 0)" stroke="rgb(204, 204, 204)" stroke-width="1px"></line></g><g transform="translate(0, 8)"><text x="0" y="0" dx="0em" dy="0.95em" style="text-anchor: middle; visibility: hidden; font-family: &quot;Helvetica Neue&quot;, sans-serif; font-size: 12px; font-weight: 200;" fill="rgb(50, 49, 63)" stroke="none" stroke-width="1px">-100</text><text x="26" y="0" dx="0em" dy="0.95em" style="text-anchor: middle; visibility: inherit; font-family: &quot;Helvetica Neue&quot;, sans-serif; font-size: 12px; font-weight: 200;" fill="rgb(50, 49, 63)" stroke="none" stroke-width="1px">0</text><text x="52" y="0" dx="0em" dy="0.95em" style="text-anchor: middle; visibility: inherit; font-family: &quot;Helvetica Neue&quot;, sans-serif; font-size: 12px; font-weight: 200;" fill="rgb(50, 49, 63)" stroke="none" stroke-width="1px">100</text><text x="78" y="0" dx="0em" dy="0.95em" style="text-anchor: middle; visibility: inherit; font-family: &quot;Helvetica Neue&quot;, sans-serif; font-size: 12px; font-weight: 200;" fill="rgb(50, 49, 63)" stroke="none" stroke-width="1px">200</text><text x="104" y="0" dx="0em" dy="0.95em" style="text-anchor: middle; visibility: inherit; font-family: &quot;Helvetica Neue&quot;, sans-serif; font-size: 12px; font-weight: 200;" fill="rgb(50, 49, 63)" stroke="none" stroke-width="1px">300</text><text x="130" y="0" dx="0em" dy="0.95em" style="text-anchor: middle; visibility: inherit; font-family: &quot;Helvetica Neue&quot;, sans-serif; font-size: 12px; font-weight: 200;" fill="rgb(50, 49, 63)" stroke="none" stroke-width="1px">400</text><text x="156" y="0" dx="0em" dy="0.95em" style="text-anchor: middle; visibility: inherit; font-family: &quot;Helvetica Neue&quot;, sans-serif; font-size: 12px; font-weight: 200;" fill="rgb(50, 49, 63)" stroke="none" stroke-width="1px">500</text><text x="182" y="0" dx="0em" dy="0.95em" style="text-anchor: middle; visibility: inherit; font-family: &quot;Helvetica Neue&quot;, sans-serif; font-size: 12px; font-weight: 200;" fill="rgb(50, 49, 63)" stroke="none" stroke-width="1px">600</text><text x="208" y="0" dx="0em" dy="0.95em" style="text-anchor: middle; visibility: inherit; font-family: &quot;Helvetica Neue&quot;, sans-serif; font-size: 12px; font-weight: 200;" fill="rgb(50, 49, 63)" stroke="none" stroke-width="1px">700</text><text x="234" y="0" dx="0em" dy="0.95em" style="text-anchor: middle; visibility: inherit; font-family: &quot;Helvetica Neue&quot;, sans-serif; font-size: 12px; font-weight: 200;" fill="rgb(50, 49, 63)" stroke="none" stroke-width="1px">800</text><text x="260" y="0" dx="0em" dy="0.95em" style="text-anchor: middle; visibility: hidden; font-family: &quot;Helvetica Neue&quot;, sans-serif; font-size: 12px; font-weight: 200;" fill="rgb(50, 49, 63)" stroke="none" stroke-width="1px">900</text></g><line x1="0" y1="0" x2="260" y2="0" fill="rgb(0, 0, 0)" stroke="rgb(204, 204, 204)" stroke-width="1px"></line></g></g></g></g></svg>