<svg viewBox="0 0 330 200" xmlns="http://www.w3.org/2000/svg"><g><g><g><g><g><line x1="70" y1="178" x2="65" y2="178" style="visibility: inherit;" fill="rgb(0, 0, 0)" stroke="rgb(204, 204, 204)" stroke-width="1px"></line><line x1="70" y1="161.8181818181818" x2="65" y2="161.8181818181818" style="visibility: inherit;" fill="rgb(0, 0, 0)" stroke="rgb(204, 204, 204)" stroke-width="1px"></line><line x1="70" y1="145.63636363636363" x2="65" y2="145.63636363636363" style="visibility: inherit;" fill="rgb(0, 0, 0)" stroke="rgb(204, 204, 204)" stroke-width="1px"></line><line x1="70" y1="129.45454545454547" x2="65" y2="129.45454545454547" style="visibility: inherit;" fill="rgb(0, 0, 0)" stroke="rgb(204, 204, 204)" stroke-width="1px"></line><line x1="70" y1="113.27272727272727" x2="65" y2="113.27272727272727" style="visibility: inherit;" fill="rgb(0, 0, 0)" stroke="rgb(204, 204, 204)" stroke-width="1px"></line><line x1="70" y1="97.0909090909091" x2="65" y2="97.0909090909091" style="visibility: inherit;" fill="rgb(0, 0, 0)" stroke="rgb(204, 204, 204)" stroke-width="1px"></line><line x1="70" y1="80.90909090909092" x2="65" y2="80.90909090909092" style="visibility: inherit;" fill="rgb(0, 0, 0)" stroke="rgb(204, 204, 204)" stroke-width="1px"></line><line x1="70" y1="64.72727272727273" x2="65" y2="64.72727272727273" style="visibility: inherit;" fill="rgb(0, 0, 0)" stroke="rgb(204, 204, 204)" stroke-width="1px"></line><line x1="70" y1="48.54545454545453" x2="65" y2="48.54545454545453" style="visibility: inherit;" fill="rgb(0, 0, 0)" stroke="rgb(204, 204, 204)" stroke-width="1px"></line><line x1="70" y1="32.363636363636346" x2="65" y2="32.363636363636346" style="visibility: inherit;" fill="rgb(0, 0, 0)" stroke="rgb(204, 204, 204)" stroke-width="1px"></line><line x1="70" y1="16.181818181818187" x2="65" y2="16.181818181818187" style="visibility: inherit;" fill="rgb(0, 0, 0)" stroke="rgb(204, 204, 204)" stroke-width="1px"></line><line x1="70" y1="0" x2="65" y2="0" style="visibility: inherit;" fill="rgb(0, 0, 0)" stroke="rgb(204, 204, 204)" stroke-width="1px"></line></g><g transform="translate(60, 0)"><text x="0" y="178" dx="0em" dy="0.3em" style="text-anchor: end; visibility: hidden; font-family: &quot;Helvetica Neue&quot;, sans-serif; font-size: 12px; font-weight: 200;" fill="rgb(50, 49, 63)" stroke="none" stroke-width="1px">-800</text><text x="0" y="161.8181818181818" dx="0em" dy="0.3em" style="text-anchor: end; visibility: inherit; font-family: &quot;Helvetica Neue&quot;, sans-serif; font-size: 12px; font-weight: 200;" fill="rgb(50, 49, 63)" stroke="none" stroke-width="1px">-600</text><text x="0" y="145.63636363636363" dx="0em" dy="0.3em" style="text-anchor: end; visibility: hidden; font-family: &quot;Helvetica Neue&quot;, sans-serif; font-size: 12px; font-weight: 200;" fill="rgb(50, 49, 63)" stroke="none" stroke-width="1px">-400</text><text x="0" y="129.45454545454547" dx="0em" dy="0.3em" style="text-anchor: end; visibility: inherit; font-family: &quot;Helvetica Neue&quot;, sans-serif; font-size: 12px; font-weight: 200;" fill="rgb(50, 49, 63)" stroke="none" stroke-width="1px">-200</text><text x="0" y="113.27272727272727" dx="0em" dy="0.3em" style="text-anchor: end; visibility: hidden; font-family: &quot;Helvetica Neue&quot;, sans-serif; font-size: 12px; font-weight: 200;" fill="rgb(50, 49, 63)" stroke="none" stroke-width="1px">0</text><text x="0" y="97.0909090909091" dx="0em" dy="0.3em" style="text-anchor: end; visibility: inherit; font-family: &quot;Helvetica Neue&quot;, sans-serif; font-size: 12px; font-weight: 200;" fill="rgb(50, 49, 63)" stroke="none" stroke-width="1px">200</text><text x="0" y="80.90909090909092" dx="0em" dy="0.3em" style="text-anchor: end; visibility: hidden; font-family: &quot;Helvetica Neue&quot;, sans-serif; font-size: 12px; font-weight: 200;" fill="rgb(50, 49, 63)" stroke="none" stroke-width="1px">400</text><text x="0" y="64.72727272727273" dx="0em" dy="0.3em" style="text-anchor: end; visibility: inherit; font-family: &quot;Helvetica Neue&quot;, sans-serif; font-size: 12px; font-weight: 200;" fill="rgb(50, 49, 63)" stroke="none" stroke-width="1px">600</text><text x="0" y="48.54545454545453" dx="0em" dy="0.3em" style="text-anchor: end; visibility: hidden; font-family: &quot;Helvetica Neue&quot;, sans-serif; font-size: 12px; font-weight: 200;" fill="rgb(50, 49, 63)" stroke="none" stroke-width="1px">800</text><text x="0" y="32.363636363636346" dx="0em" dy="0.3em" style="text-anchor: end; visibility: inherit; font-family: &quot;Helvetica Neue&quot;, sans-serif; font-size: 12px; font-weight: 200;" fill="rgb(50, 49, 63)" stroke="none" stroke-width="1px">1e+3</text><text x="0" y="16.181818181818187" dx="0em" dy="0.3em" style="text-anchor: end; visibility: hidden; font-family: &quot;Helvetica Neue&quot;, sans-serif; font-size: 12px; font-weight: 200;" fill="rgb(50, 49, 63)" stroke="none" stroke-width="1px">1.2e+3</text><text x="0" y="0" dx="0em" dy="0.3em" style="text-anchor: end; visibility: hidden; font-family: &quot;Helvetica Neue&quot;, sans-serif; font-size: 12px; font-weight: 200;" fill="rgb(50, 49, 63)" stroke="none" stroke-width="1px">1.4e+3</text></g><line x1="70" y1="0" x2="70" y2="178" fill="rgb(0, 0, 0)" stroke="rgb(204, 204, 204)" stroke-width="1px"></line></g></g><g transform="translate(70, 0)" clip-path="url(#clip_0)"><clipPath id="clip_0"><rect width="260" height="178"></rect></clipPath><g><g><g><line x1="0" y1="0" x2="0" y2="178" fill="rgb(0, 0, 0)" stroke="rgb(60, 60, 60)" stroke-width="1px" opacity="0.25"></line><line x1="23.636363636363637" y1="0" x2="23.636363636363637" y2="178" fill="rgb(0, 0, 0)" stroke="rgb(60, 60, 60)" stroke-width="1px" opacity="0.25"></line><line x1="47.27272727272727" y1="0" x2="47.27272727272727" y2="178" fill="rgb(0, 0, 0)" stroke="rgb(60, 60, 60)" stroke-width="1px" opacity="0.25"></line><line x1="70.9090909090909" y1="0" x2="70.9090909090909" y2="178" fill="rgb(0, 0, 0)" stroke="rgb(60, 60, 60)" stroke-width="1px" opacity="0.25"></line><line x1="94.54545454545455" y1="0" x2="94.54545454545455" y2="178" fill="rgb(0, 0, 0)" stroke="rgb(60, 60, 60)" stroke-width="1px" opacity="0.25"></line><line x1="118.18181818181817" y1="0" x2="118.18181818181817" y2="178" fill="rgb(0, 0, 0)" stroke="rgb(60, 60, 60)" stroke-width="1px" opacity="0.25"></line><line x1="141.8181818181818" y1="0" x2="141.8181818181818" y2="178" fill="rgb(0, 0, 0)" stroke="rgb(60, 60, 60)" stroke-width="1px" opacity="0.25"></line><line x1="165.45454545454544" y1="0" x2="165.45454545454544" y2="178" fill="rgb(0, 0, 0)" stroke="rgb(60, 60, 60)" stroke-width="1px" opacity="0.25"></line><line x1="189.0909090909091" y1="0" x2="189.0909090909091" y2="178" fill="rgb(0, 0, 0)" stroke="rgb(60, 60, 60)" stroke-width="1px" opacity="0.25"></line><line x1="212.72727272727275" y1="0" x2="212.72727272727275" y2="178" fill="rgb(0, 0, 0)" stroke="rgb(60, 60, 60)" stroke-width="1px" opacity="0.25"></line><line x1="236.36363636363635" y1="0" x2="236.36363636363635" y2="178" fill="rgb(0, 0, 0)" stroke="rgb(60, 60, 60)" stroke-width="1px" opacity="0.25"></line><line x1="260" y1="0" x2="260" y2="178" fill="rgb(0, 0, 0)" stroke="rgb(60, 60, 60)" stroke-width="1px" opacity="0.25"></line></g><g><line x1="0" y1="178" x2="260" y2="178" fill="rgb(0, 0, 0)" stroke="rgb(60, 60, 60)" stroke-width="1px" opacity="0.25"></line><line x1="0" y1="161.8181818181818" x2="260" y2="161.8181818181818" fill="rgb(0, 0, 0)" stroke="rgb(60, 60, 60)" stroke-width="1px" opacity="0.25"></line><line x1="0" y1="145.63636363636363" x2="260" y2="145.63636363636363" fill="rgb(0, 0, 0)" stroke="rgb(60, 60, 60)" stroke-width="1px" opacity="0.25"></line><line x1="0" y1="129.45454545454547" x2="260" y2="129.45454545454547" fill="rgb(0, 0, 0)" stroke="rgb(60, 60, 60)" stroke-width="1px" opacity="0.25"></line><line x1="0" y1="113.27272727272727" x2="260" y2="113.27272727272727" fill="rgb(0, 0, 0)" stroke="rgb(60, 60, 60)" stroke-width="1px" opacity="0.25"></line><line x1="0" y1="97.0909090909091" x2="260" y2="97.0909090909091" fill="rgb(0, 0, 0)" stroke="rgb(60, 60, 60)" stroke-width="1px" opacity="0.25"></line><line x1="0" y1="80.90909090909092" x2="260" y2="80.90909090909092" fill="rgb(0, 0, 0)" stroke="rgb(60, 60, 60)" stroke-width="1px" opacity="0.25"></line><line x1="0" y1="64.72727272727273" x2="260" y2="64.72727272727273" fill="rgb(0, 0, 0)" stroke="rgb(60, 60, 60)" stroke-width="1px" opacity="0.25"></line><line x1="0" y1="48.54545454545453" x2="260" y2="48.54545454545453" fill="rgb(0, 0, 0)" stroke="rgb(60, 60, 60)" stroke-width="1px" opacity="0.25"></line><line x1="0" y1="32.363636363636346" x2="260" y2="32.363636363636346" fill="rgb(0, 0, 0)" stroke="rgb(60, 60, 60)" stroke-width="1px" opacity="0.25"></line><line x1="0" y1="16.181818181818187" x2="260" y2="16.181818181818187" fill="rgb(0, 0, 0)" stroke="rgb(60, 60, 60)" stroke-width="1px" opacity="0.25"></line><line x1="0" y1="0" x2="260" y2="0" fill="rgb(0, 0, 0)" stroke="rgb(60, 60, 60)" stroke-width="1px" opacity="0.25"></line></g></g></g><g><g><line x1="0" y1="113.27272727272727" x2="260" y2="113.27272727272727" fill="rgb(0, 0, 0)" stroke="rgb(153, 153, 153)" stroke-width="1.5px"></line></g></g><g><g><line x1="23.636363636363637" y1="0" x2="23.636363636363637" y2="178" fill="rgb(0, 0, 0)" stroke="rgb(153, 153, 153)" stroke-width="1.5px"></line></g></g><g><g><g><g><g><path stroke="rgb(238, 51, 119)" stroke-width="2px" d="M23.636363636363637,95.75056091308593L28.363636363636363,34.91735423694959L33.090909090909086,40.77572748357599L37.81818181818181,43.519382213245734L42.54545454545455,104.79099070462314L47.27272727272727,57.94638078169389L52,64.99278531161221L56.72727272727273,66.31892600319601L61.45454545454545,83.18680972012608L66.18181818181817,111.70386933933605L70.9090909090909,110.33884864807129L75.63636363636363,102.96027252197266L80.36363636363636,97.30062013105912L85.0909090909091,102.52348120949485L89.81818181818181,111.04477926254273L94.54545454545455,111.33585757515647L99.27272727272728,113.73870620857586L104,113.73944220803L108.72727272727272,114.25821746305986L113.45454545454545,114.03259792414579L118.18181818181817,134.0869439974698L122.9090909090909,125.84046367298473L127.63636363636364,120.66771892200816L132.36363636363635,141.0742148659446L137.09090909090907,115.39693689866499L141.8181818181818,129.40621308760208L146.54545454545453,130.36957398848102L151.27272727272725,116.33944428877398L156,114.5235485649109L160.72727272727272,114.17411823099309L165.45454545454544,115.13284361232411L170.1818181818182,114.24933955886146L174.9090909090909,114.26143677104604L179.63636363636363,123.84018590753729L184.36363636363637,114.84029260635376L189.0909090909091,114.86702161268754L193.8181818181818,114.35239560907537L198.54545454545456,114.90883743112738L203.27272727272728,116.02137986963444L208,120.52436627474698L212.72727272727275,115.00385539661754L217.45454545454544,116.17266157323664L220.52727272727273,117.3561956093528" style="fill: none;" fill="none"></path></g><g><path stroke="rgb(51, 187, 238)" stroke-width="2px" d="M23.636363636363637,89.10474626020952L28.363636363636363,35.59119501287287L33.090909090909086,41.08830205743965L37.81818181818181,106.24119751670143L42.54545454545455,57.73302157315342L47.27272727272727,63.42783341841263L52,70.12598416415129L56.72727272727273,80.25817124800248L61.45454545454545,111.68266860441729L66.18181818181817,112.1274083406275L70.9090909090909,106.14899885697798L75.63636363636363,112.98819295861504L80.36363636363636,113.16564213958654L85.0909090909091,116.3719142220237L89.81818181818181,123.79066464510831L94.54545454545455,123.68956655328924L99.27272727272728,135.84385251131926L104,113.93500895673579L108.72727272727272,115.20319600885564L113.45454545454545,115.48719557848844L118.18181818181817,114.14135716958481L122.9090909090909,114.62131994074042L127.63636363636364,137.69990972345525L132.36363636363635,115.45006882927635L137.09090909090907,114.24352988156406L141.8181818181818,128.53443294178356L146.54545454545453,119.22725846030495L151.27272727272725,114.31547673138705L156,128.75817986228247L160.72727272727272,140.84031480269L165.45454545454544,114.66962761618873L170.1818181818182,118.7450847972523L174.9090909090909,116.47536880839955L179.63636363636363,118.23731191808528L184.36363636363637,114.73601702776821L189.0909090909091,114.47736358642578L193.8181818181818,115.09060927304355L198.54545454545456,123.67227509932084L203.27272727272728,114.5119582228227L208,114.52684163873846L212.72727272727275,118.42738735545765L217.45454545454544,115.89521713256836L220.29090909090908,114.59404077703303" style="fill: none;" fill="none"></path></g><g><path stroke="rgb(204, 51, 17)" stroke-width="2px" d="M23.636363636363637,99.93373967950994L28.363636363636363,34.69079001686791L33.090909090909086,40.33940901322799L37.81818181818181,98.29591577703302L42.54545454545455,50.37146467729049L47.27272727272727,55.49142888849431L52,61.83527643377131L56.72727272727273,65.9439609596946L61.45454545454545,72.46301194624466L66.18181818181817,80.6409437422319L70.9090909090909,99.84292189164596L75.63636363636363,102.8178186451305L80.36363636363636,107.52260215759277L85.0909090909091,111.8856530640342L89.81818181818181,112.48003892378374L94.54545454545455,113.06114970987494L99.27272727272728,113.28580340141599L104,113.45851067239587L108.72727272727272,113.4469105887413L113.45454545454545,113.41998929738998L118.18181818181817,113.65187636722217L122.9090909090909,114.78120477849788L127.63636363636364,113.77764658667824L132.36363636363635,114.82006317312067L137.09090909090907,114.4740610218048L141.8181818181818,115.85299251556395L146.54545454545453,132.3761480851607L151.27272727272725,114.14176126133312L156,115.2151544085416L160.72727272727272,115.50584012638438L165.45454545454544,114.55792352416299L170.1818181818182,114.06273327654058L174.9090909090909,115.44102803837168L179.63636363636363,116.44725013386119L184.36363636363637,114.42608452103354L189.0909090909091,132.46018311934037L193.8181818181818,114.47694830634377L198.54545454545456,116.32062288804488L203.27272727272728,116.0559306786277L208,117.4478698834506L212.72727272727275,114.26088977727022L217.45454545454544,115.30658377387306L222.18181818181816,114.33351903828708L226.9090909090909,138.67836700439454L231.63636363636363,123.42782806396485L236.36363636363635,114.879392823306L239.6727272727273,114.08875865242698" style="fill: none;" fill="none"></path></g><g><path stroke="rgb(0, 119, 187)" stroke-width="2px" d="M23.636363636363637,94.92893166281961L28.363636363636363,86.3059331997958L33.090909090909086,41.33116760253907L37.81818181818181,47.107426813298986L42.54545454545455,51.119463889382104L47.27272727272727,56.82838445490057L52,62.4710478626598L56.72727272727273,70.03419600053267L61.45454545454545,110.41086910941384L66.18181818181817,106.33052270369096L70.9090909090909,91.80208962180397L75.63636363636363,107.70538341869008L80.36363636363636,101.62948859474875L85.0909090909091,105.16896996238015L89.81818181818181,111.07285102324052L94.54545454545455,113.4411202209646L99.27272727272728,113.6120665398511L104,113.84057571671225L108.72727272727272,114.09833324258977L113.45454545454545,120.69243634310635L118.18181818181817,115.00874925093217L122.9090909090909,114.3939191419428L127.63636363636364,122.72793035333807L132.36363636363635,129.44895406549625L137.09090909090907,127.7029159823331L141.8181818181818,114.14639516050165L146.54545454545453,115.14349768378517L151.27272727272725,115.35182152488014L156,115.58873796289618L160.72727272727272,115.34011158336293L165.45454545454544,141.0569999556108L170.1818181818182,137.286830888228L174.9090909090909,115.28250879461115L179.63636363636363,114.31625513076781L184.36363636363637,114.89797564246437L189.0909090909091,115.54945796099577L193.8181818181818,114.41360366474498L198.54545454545456,114.70751332022927L203.27272727272728,114.41909489891745L208,115.0199406710538L212.72727272727275,114.46686900659041L217.45454545454544,114.17998500737278L222.18181818181816,114.49391120910644L226.9090909090909,113.88933933604847L228.5636363636364,114.51131747852672" style="fill: none;" fill="none"></path></g><g><path stroke="rgb(255, 112, 67)" stroke-width="2px" d="M23.636363636363637,99.09652392300693L28.363636363636363,34.70270119406959L33.090909090909086,39.5684072043679L37.81818181818181,48.345344793146296L42.54545454545455,53.90966208718039L47.27272727272727,57.33705888227982L52,62.916630581942485L56.72727272727273,89.6271689120206L61.45454545454545,79.86741352428089L66.18181818181817,88.1991733342951L70.9090909090909,97.13787848732689L75.63636363636363,106.3826192890514L80.36363636363636,109.42125837152655L85.0909090909091,113.12401804674755L89.81818181818181,114.25251426783475L94.54545454545455,113.5823193840547L99.27272727272728,117.06175539536909L104,118.08622342543168L108.72727272727272,119.14200428355824L113.45454545454545,113.95966835282066L118.18181818181817,119.96494218306108L122.9090909090909,114.53551383191889L127.63636363636364,113.61509433442896L132.36363636363635,113.8174498167905L137.09090909090907,114.14598273537376L141.8181818181818,113.70797891616822L146.54545454545453,114.49395935752175L151.27272727272725,117.83430443503639L156,113.92203820575367L160.72727272727272,125.28660380970348L165.45454545454544,125.9002368441495L170.1818181818182,114.70312317241323L174.9090909090909,113.71108433463357L179.63636363636363,114.06008225874467L184.36363636363637,122.65344228571112L189.0909090909091,114.15605439619586L193.8181818181818,116.26677135467529L198.54545454545456,116.7025231552124L203.27272727272728,114.56300225604664L208,116.32393741260876L212.72727272727275,114.31300441828641L217.45454545454544,114.15731960383329L222.18181818181816,117.63505487268621L226.9090909090909,139.03655911532314L231.63636363636363,114.5988637976213L236.36363636363635,115.93102813373912L241.0909090909091,140.24675101540305L242.9818181818182,115.7418814052235" style="fill: none;" fill="none"></path></g></g></g></g></g></g><g transform="translate(70, 178)" clip-path="url(#clip_1)"><clipPath id="clip_1"><rect width="260" height="22"></rect></clipPath><g><g><line x1="0" y1="0" x2="0" y2="5" style="visibility: inherit;" fill="rgb(0, 0, 0)" stroke="rgb(204, 204, 204)" stroke-width="1px"></line><line x1="23.636363636363637" y1="0" x2="23.636363636363637" y2="5" style="visibility: inherit;" fill="rgb(0, 0, 0)" stroke="rgb(204, 204, 204)" stroke-width="1px"></line><line x1="47.27272727272727" y1="0" x2="47.27272727272727" y2="5" style="visibility: inherit;" fill="rgb(0, 0, 0)" stroke="rgb(204, 204, 204)" stroke-width="1px"></line><line x1="70.9090909090909" y1="0" x2="70.9090909090909" y2="5" style="visibility: inherit;" fill="rgb(0, 0, 0)" stroke="rgb(204, 204, 204)" stroke-width="1px"></line><line x1="94.54545454545455" y1="0" x2="94.54545454545455" y2="5" style="visibility: inherit;" fill="rgb(0, 0, 0)" stroke="rgb(204, 204, 204)" stroke-width="1px"></line><line x1="118.18181818181817" y1="0" x2="118.18181818181817" y2="5" style="visibility: inherit;" fill="rgb(0, 0, 0)" stroke="rgb(204, 204, 204)" stroke-width="1px"></line><line x1="141.8181818181818" y1="0" x2="141.8181818181818" y2="5" style="visibility: inherit;" fill="rgb(0, 0, 0)" stroke="rgb(204, 204, 204)" stroke-width="1px"></line><line x1="165.45454545454544" y1="0" x2="165.45454545454544" y2="5" style="visibility: inherit;" fill="rgb(0, 0, 0)" stroke="rgb(204, 204, 204)" stroke-width="1px"></line><line x1="189.0909090909091" y1="0" x2="189.0909090909091" y2="5" style="visibility: inherit;" fill="rgb(0, 0, 0)" stroke="rgb(204, 204, 204)" stroke-width="1px"></line><line x1="212.72727272727275" y1="0" x2="212.72727272727275" y2="5" style="visibility: inherit;" fill="rgb(0, 0, 0)" stroke="rgb(204, 204, 204)" stroke-width="1px"></line><line x1="236.36363636363635" y1="0" x2="236.36363636363635" y2="5" style="visibility: inherit;" fill="rgb(0, 0, 0)" stroke="rgb(204, 204, 204)" stroke-width="1px"></line><line x1="260" y1="0" x2="260" y2="5" style="visibility: inherit;" fill="rgb(0, 0, 0)" stroke="rgb(204, 204, 204)" stroke-width="1px"></line></g><g transform="translate(0, 8)"><text x="0" y="0" dx="0em" dy="0.95em" style="text-anchor: middle; visibility: hidden; font-family: &quot;Helvetica Neue&quot;, sans-serif; font-size: 12px; font-weight: 200;" fill="rgb(50, 49, 63)" stroke="none" stroke-width="1px">-100</text><text x="23.636363636363637" y="0" dx="0em" dy="0.95em" style="text-anchor: middle; visibility: inherit; font-family: &quot;Helvetica Neue&quot;, sans-serif; font-size: 12px; font-weight: 200;" fill="rgb(50, 49, 63)" stroke="none" stroke-width="1px">0</text><text x="47.27272727272727" y="0" dx="0em" dy="0.95em" style="text-anchor: middle; visibility: hidden; font-family: &quot;Helvetica Neue&quot;, sans-serif; font-size: 12px; font-weight: 200;" fill="rgb(50, 49, 63)" stroke="none" stroke-width="1px">100</text><text x="70.9090909090909" y="0" dx="0em" dy="0.95em" style="text-anchor: middle; visibility: inherit; font-family: &quot;Helvetica Neue&quot;, sans-serif; font-size: 12px; font-weight: 200;" fill="rgb(50, 49, 63)" stroke="none" stroke-width="1px">200</text><text x="94.54545454545455" y="0" dx="0em" dy="0.95em" style="text-anchor: middle; visibility: hidden; font-family: &quot;Helvetica Neue&quot;, sans-serif; font-size: 12px; font-weight: 200;" fill="rgb(50, 49, 63)" stroke="none" stroke-width="1px">300</text><text x="118.18181818181817" y="0" dx="0em" dy="0.95em" style="text-anchor: middle; visibility: inherit; font-family: &quot;Helvetica Neue&quot;, sans-serif; font-size: 12px; font-weight: 200;" fill="rgb(50, 49, 63)" stroke="none" stroke-width="1px">400</text><text x="141.8181818181818" y="0" dx="0em" dy="0.95em" style="text-anchor: middle; visibility: hidden; font-family: &quot;Helvetica Neue&quot;, sans-serif; font-size: 12px; font-weight: 200;" fill="rgb(50, 49, 63)" stroke="none" stroke-width="1px">500</text><text x="165.45454545454544" y="0" dx="0em" dy="0.95em" style="text-anchor: middle; visibility: inherit; font-family: &quot;Helvetica Neue&quot;, sans-serif; font-size: 12px; font-weight: 200;" fill="rgb(50, 49, 63)" stroke="none" stroke-width="1px">600</text><text x="189.0909090909091" y="0" dx="0em" dy="0.95em" style="text-anchor: middle; visibility: hidden; font-family: &quot;Helvetica Neue&quot;, sans-serif; font-size: 12px; font-weight: 200;" fill="rgb(50, 49, 63)" stroke="none" stroke-width="1px">700</text><text x="212.72727272727275" y="0" dx="0em" dy="0.95em" style="text-anchor: middle; visibility: inherit; font-family: &quot;Helvetica Neue&quot;, sans-serif; font-size: 12px; font-weight: 200;" fill="rgb(50, 49, 63)" stroke="none" stroke-width="1px">800</text><text x="236.36363636363635" y="0" dx="0em" dy="0.95em" style="text-anchor: middle; visibility: hidden; font-family: &quot;Helvetica Neue&quot;, sans-serif; font-size: 12px; font-weight: 200;" fill="rgb(50, 49, 63)" stroke="none" stroke-width="1px">900</text><text x="260" y="0" dx="0em" dy="0.95em" style="text-anchor: middle; visibility: hidden; font-family: &quot;Helvetica Neue&quot;, sans-serif; font-size: 12px; font-weight: 200;" fill="rgb(50, 49, 63)" stroke="none" stroke-width="1px">1k</text></g><line x1="0" y1="0" x2="260" y2="0" fill="rgb(0, 0, 0)" stroke="rgb(204, 204, 204)" stroke-width="1px"></line></g></g></g></g></svg>